<svg id="logo-87" width="202" height="40" viewBox="0 0 202 40" fill="none" xmlns="http://www.w3.org/2000/svg">
  <path class="ccustom" fill-rule="evenodd" clip-rule="evenodd" d="M25.5557 11.6853C23.9112 10.5865 21.9778 10 20 10V0C23.9556 0 27.8224 1.17298 31.1114 3.37061C34.4004 5.56823 36.9638 8.69181 38.4776 12.3463C39.9913 16.0008 40.3874 20.0222 39.6157 23.9018C38.844 27.7814 36.9392 31.3451 34.1421 34.1421C31.3451 36.9392 27.7814 38.844 23.9018 39.6157C20.0222 40.3874 16.0008 39.9913 12.3463 38.4776C8.6918 36.9638 5.56823 34.4004 3.37061 31.1114C1.17298 27.8224 0 23.9556 0 20H10C10 21.9778 10.5865 23.9112 11.6853 25.5557C12.7841 27.2002 14.3459 28.4819 16.1732 29.2388C18.0004 29.9957 20.0111 30.1937 21.9509 29.8078C23.8907 29.422 25.6725 28.4696 27.0711 27.0711C28.4696 25.6725 29.422 23.8907 29.8078 21.9509C30.1937 20.0111 29.9957 18.0004 29.2388 16.1732C28.4819 14.3459 27.2002 12.7841 25.5557 11.6853Z" fill="#007DFC"/>
  <path class="ccustom" fill-rule="evenodd" clip-rule="evenodd" d="M10 1.47023e-06C10 1.31322 9.74135 2.61358 9.2388 3.82684C8.73625 5.04009 7.99966 6.14248 7.07107 7.07107C6.14249 7.99966 5.0401 8.73625 3.82684 9.2388C2.61358 9.74134 1.31322 10 6.15916e-06 10L5.72205e-06 20C2.62644 20 5.22716 19.4827 7.65368 18.4776C10.0802 17.4725 12.285 15.9993 14.1421 14.1421C15.9993 12.285 17.4725 10.0802 18.4776 7.65367C19.4827 5.22715 20 2.62643 20 -3.8147e-06L10 1.47023e-06Z" fill="#007DFC"/>
  <path class="ccustom" d="M125.619 14.4525H120.767V29.8648H125.619V14.4525Z" fill="#007DFC"/>
  <path class="ccustom" d="M121.307 11.5666C121.814 12.074 122.448 12.3277 123.209 12.3277C123.97 12.3277 124.594 12.074 125.08 11.5666C125.567 11.0381 125.81 10.4038 125.81 9.66385C125.81 8.90277 125.567 8.26849 125.08 7.76111C124.594 7.25369 123.97 7 123.209 7C122.448 7 121.814 7.25369 121.307 7.76111C120.82 8.26849 120.577 8.90277 120.577 9.66385C120.577 10.4038 120.82 11.0381 121.307 11.5666Z" fill="#007DFC"/>
  <path class="ccustom" d="M51.1562 29.8648V7.47568H56.1351V25.4885H66.0612V29.8648H51.1562Z" fill="#007DFC"/>
  <path class="ccustom" fill-rule="evenodd" clip-rule="evenodd" d="M75.0274 30.2136C73.4418 30.2136 72.0042 29.8648 70.7145 29.1671C69.446 28.4483 68.4418 27.4758 67.7018 26.2495C66.9619 25.0233 66.5919 23.6491 66.5919 22.1269C66.5919 20.6047 66.9619 19.2411 67.7018 18.036C68.4418 16.8309 69.446 15.8795 70.7145 15.1819C71.983 14.463 73.4207 14.1036 75.0274 14.1036C76.6342 14.1036 78.0718 14.4525 79.3403 15.1501C80.6088 15.8478 81.6131 16.8098 82.353 18.036C83.093 19.2411 83.463 20.6047 83.463 22.1269C83.463 23.6491 83.093 25.0233 82.353 26.2495C81.6131 27.4758 80.6088 28.4483 79.3403 29.1671C78.0718 29.8648 76.6342 30.2136 75.0274 30.2136ZM75.0274 25.8056C75.7251 25.8056 76.3382 25.6576 76.8668 25.3616C77.3953 25.0445 77.797 24.6111 78.0718 24.0614C78.3678 23.4906 78.5158 22.8457 78.5158 22.1269C78.5158 21.4081 78.3678 20.7844 78.0718 20.2559C77.7758 19.7062 77.3636 19.2834 76.835 18.9874C76.3276 18.6702 75.7251 18.5117 75.0274 18.5117C74.3509 18.5117 73.7484 18.6702 73.2198 18.9874C72.6913 19.2834 72.279 19.7062 71.983 20.2559C71.687 20.8056 71.5391 21.4398 71.5391 22.1586C71.5391 22.8563 71.687 23.4906 71.983 24.0614C72.279 24.6111 72.6913 25.0445 73.2198 25.3616C73.7484 25.6576 74.3509 25.8056 75.0274 25.8056Z" fill="#007DFC"/>
  <!-- Rest of the paths... -->
</svg> 